<?xml version="1.0" standalone="no"?>
<!DOCTYPE svg PUBLIC "-//W3C//DTD SVG 20010904//EN"
 "http://www.w3.org/TR/2001/REC-SVG-20010904/DTD/svg10.dtd">
<svg version="1.0" xmlns="http://www.w3.org/2000/svg"
 width="1280.000000pt" height="720.000000pt" viewBox="0 0 1280.000000 720.000000"
 preserveAspectRatio="xMidYMid meet">
<metadata>
Created by potrace 1.12, written by Peter Selinger 2001-2015
</metadata>
<g transform="translate(0.000000,720.000000) scale(0.100000,-0.100000)"
fill="#000000" stroke="none">
<path d="M4298 4860 c-230 -42 -426 -189 -528 -395 -68 -140 -93 -299 -71
-454 21 -144 57 -225 231 -520 130 -221 147 -257 164 -341 14 -64 21 -78 70
-130 30 -33 78 -98 107 -146 77 -127 103 -154 150 -154 48 0 58 10 140 132 35
51 81 113 104 138 75 82 85 100 85 149 1 64 30 130 157 347 165 283 180 311
208 409 123 419 -106 844 -510 950 -72 19 -242 27 -307 15z m171 -206 c13 -16
21 -41 21 -64 0 -23 8 -48 21 -64 39 -50 120 -250 150 -371 42 -172 37 -261
-16 -305 -43 -36 -48 -66 -60 -345 -12 -293 -17 -316 -72 -352 -41 -27 -162
-25 -200 3 -61 45 -67 72 -74 364 -3 154 -10 276 -16 291 -6 14 -26 38 -45 54
-47 39 -57 62 -58 130 0 116 33 239 100 369 34 65 75 136 91 159 20 28 29 52
29 79 0 49 28 78 74 78 25 0 40 -7 55 -26z"/>
<path d="M11265 1102 c-43 -13 -75 -18 -132 -21 -7 -1 -17 -9 -22 -20 -8 -15
-3 -26 28 -60 47 -51 75 -122 101 -259 21 -114 39 -151 82 -177 26 -15 64 -17
361 -16 994 2 924 -2 961 60 17 30 18 39 8 94 -21 110 -65 132 -247 127 -259
-8 -264 -6 -305 107 -15 41 -49 63 -110 70 -87 10 -119 -2 -182 -69 -51 -55
-60 -61 -97 -61 -80 0 -154 46 -207 129 -63 99 -133 127 -239 96z"/>
</g>
</svg>
